<mxfile host="app.diagrams.net" modified="2022-04-01T13:34:28.993Z" agent="5.0 (X11; Linux x86_64) AppleWebKit/537.36 (KHTML, like Gecko) Chrome/98.0.4758.102 Safari/537.36" etag="S0NcMGS3c9QjUgSKWKcF" version="17.3.0" type="github">
  <diagram id="YRVVSqQYEw72XIkHhRTq" name="Page-1">
    <mxGraphModel dx="1422" dy="698" grid="1" gridSize="10" guides="1" tooltips="1" connect="1" arrows="1" fold="1" page="1" pageScale="1" pageWidth="850" pageHeight="1100" math="0" shadow="0">
      <root>
        <mxCell id="0" />
        <mxCell id="1" parent="0" />
        <mxCell id="Md_CM1CN4GEFnyTzax27-1" value="&lt;font style=&quot;font-size: 20px&quot;&gt;Preços&lt;/font&gt;" style="rounded=0;whiteSpace=wrap;html=1;" parent="1" vertex="1">
          <mxGeometry x="397.95" y="810" width="180" height="130" as="geometry" />
        </mxCell>
        <mxCell id="AHtcUxiShF1uRWyKiiDl-36" style="edgeStyle=orthogonalEdgeStyle;rounded=0;orthogonalLoop=1;jettySize=auto;html=1;entryX=1;entryY=0.5;entryDx=0;entryDy=0;fontSize=18;endArrow=none;endFill=0;" edge="1" parent="1" source="Md_CM1CN4GEFnyTzax27-2" target="AHtcUxiShF1uRWyKiiDl-31">
          <mxGeometry relative="1" as="geometry" />
        </mxCell>
        <mxCell id="AHtcUxiShF1uRWyKiiDl-38" style="edgeStyle=orthogonalEdgeStyle;rounded=0;orthogonalLoop=1;jettySize=auto;html=1;exitX=0.5;exitY=1;exitDx=0;exitDy=0;entryX=0.5;entryY=0;entryDx=0;entryDy=0;fontSize=18;endArrow=none;endFill=0;" edge="1" parent="1" source="Md_CM1CN4GEFnyTzax27-2" target="AHtcUxiShF1uRWyKiiDl-37">
          <mxGeometry relative="1" as="geometry" />
        </mxCell>
        <mxCell id="Md_CM1CN4GEFnyTzax27-2" value="&lt;font style=&quot;font-size: 20px&quot;&gt;Veículos&lt;/font&gt;" style="rounded=0;whiteSpace=wrap;html=1;" parent="1" vertex="1">
          <mxGeometry x="400" y="230" width="180" height="130" as="geometry" />
        </mxCell>
        <mxCell id="AHtcUxiShF1uRWyKiiDl-42" style="edgeStyle=orthogonalEdgeStyle;rounded=0;orthogonalLoop=1;jettySize=auto;html=1;exitX=0;exitY=0.5;exitDx=0;exitDy=0;entryX=1;entryY=0.5;entryDx=0;entryDy=0;fontSize=18;endArrow=none;endFill=0;" edge="1" parent="1" source="Md_CM1CN4GEFnyTzax27-3" target="AHtcUxiShF1uRWyKiiDl-41">
          <mxGeometry relative="1" as="geometry" />
        </mxCell>
        <mxCell id="Md_CM1CN4GEFnyTzax27-3" value="&lt;font style=&quot;font-size: 20px&quot;&gt;Vagas&lt;/font&gt;" style="rounded=0;whiteSpace=wrap;html=1;" parent="1" vertex="1">
          <mxGeometry x="400" y="480" width="180" height="130" as="geometry" />
        </mxCell>
        <mxCell id="AHtcUxiShF1uRWyKiiDl-29" style="edgeStyle=orthogonalEdgeStyle;rounded=0;orthogonalLoop=1;jettySize=auto;html=1;exitX=1;exitY=0.5;exitDx=0;exitDy=0;entryX=0;entryY=0.5;entryDx=0;entryDy=0;fontSize=18;endArrow=none;endFill=0;" edge="1" parent="1" source="Md_CM1CN4GEFnyTzax27-4" target="AHtcUxiShF1uRWyKiiDl-28">
          <mxGeometry relative="1" as="geometry" />
        </mxCell>
        <mxCell id="AHtcUxiShF1uRWyKiiDl-46" style="edgeStyle=orthogonalEdgeStyle;rounded=0;orthogonalLoop=1;jettySize=auto;html=1;exitX=0.5;exitY=1;exitDx=0;exitDy=0;entryX=0.5;entryY=0;entryDx=0;entryDy=0;fontSize=18;endArrow=none;endFill=0;" edge="1" parent="1" source="Md_CM1CN4GEFnyTzax27-4" target="AHtcUxiShF1uRWyKiiDl-45">
          <mxGeometry relative="1" as="geometry" />
        </mxCell>
        <mxCell id="Md_CM1CN4GEFnyTzax27-4" value="&lt;font style=&quot;font-size: 20px&quot;&gt;Clientes&lt;/font&gt;" style="rounded=0;whiteSpace=wrap;html=1;" parent="1" vertex="1">
          <mxGeometry y="230" width="180" height="130" as="geometry" />
        </mxCell>
        <mxCell id="AHtcUxiShF1uRWyKiiDl-30" style="edgeStyle=orthogonalEdgeStyle;rounded=0;orthogonalLoop=1;jettySize=auto;html=1;exitX=1;exitY=0.5;exitDx=0;exitDy=0;entryX=0;entryY=0.5;entryDx=0;entryDy=0;fontSize=18;endArrow=none;endFill=0;" edge="1" parent="1" source="AHtcUxiShF1uRWyKiiDl-28" target="Md_CM1CN4GEFnyTzax27-2">
          <mxGeometry relative="1" as="geometry" />
        </mxCell>
        <mxCell id="AHtcUxiShF1uRWyKiiDl-28" value="Possuem" style="rhombus;whiteSpace=wrap;html=1;fontSize=18;" vertex="1" parent="1">
          <mxGeometry x="240" y="255" width="100" height="80" as="geometry" />
        </mxCell>
        <mxCell id="AHtcUxiShF1uRWyKiiDl-34" style="edgeStyle=orthogonalEdgeStyle;rounded=0;orthogonalLoop=1;jettySize=auto;html=1;exitX=0;exitY=0.75;exitDx=0;exitDy=0;entryX=0;entryY=0.5;entryDx=0;entryDy=0;fontSize=18;endArrow=none;endFill=0;" edge="1" parent="1" source="AHtcUxiShF1uRWyKiiDl-31" target="AHtcUxiShF1uRWyKiiDl-32">
          <mxGeometry relative="1" as="geometry" />
        </mxCell>
        <mxCell id="AHtcUxiShF1uRWyKiiDl-35" style="edgeStyle=orthogonalEdgeStyle;rounded=0;orthogonalLoop=1;jettySize=auto;html=1;exitX=0;exitY=0.25;exitDx=0;exitDy=0;entryX=0;entryY=0.5;entryDx=0;entryDy=0;fontSize=18;endArrow=none;endFill=0;" edge="1" parent="1" source="AHtcUxiShF1uRWyKiiDl-31" target="AHtcUxiShF1uRWyKiiDl-33">
          <mxGeometry relative="1" as="geometry" />
        </mxCell>
        <mxCell id="AHtcUxiShF1uRWyKiiDl-31" value="" style="triangle;whiteSpace=wrap;html=1;fontSize=18;rotation=-180;" vertex="1" parent="1">
          <mxGeometry x="600" y="255" width="60" height="80" as="geometry" />
        </mxCell>
        <mxCell id="AHtcUxiShF1uRWyKiiDl-32" value="Automóveis" style="rounded=0;whiteSpace=wrap;html=1;fontSize=18;" vertex="1" parent="1">
          <mxGeometry x="700" y="240" width="120" height="40" as="geometry" />
        </mxCell>
        <mxCell id="AHtcUxiShF1uRWyKiiDl-33" value="Motos" style="rounded=0;whiteSpace=wrap;html=1;fontSize=18;" vertex="1" parent="1">
          <mxGeometry x="700" y="310" width="120" height="40" as="geometry" />
        </mxCell>
        <mxCell id="AHtcUxiShF1uRWyKiiDl-39" style="edgeStyle=orthogonalEdgeStyle;rounded=0;orthogonalLoop=1;jettySize=auto;html=1;exitX=0.5;exitY=1;exitDx=0;exitDy=0;entryX=0.5;entryY=0;entryDx=0;entryDy=0;fontSize=18;endArrow=none;endFill=0;" edge="1" parent="1" source="AHtcUxiShF1uRWyKiiDl-37" target="Md_CM1CN4GEFnyTzax27-3">
          <mxGeometry relative="1" as="geometry" />
        </mxCell>
        <mxCell id="AHtcUxiShF1uRWyKiiDl-78" style="edgeStyle=orthogonalEdgeStyle;rounded=0;orthogonalLoop=1;jettySize=auto;html=1;exitX=1;exitY=0.5;exitDx=0;exitDy=0;entryX=0;entryY=0.5;entryDx=0;entryDy=0;fontSize=15;endArrow=none;endFill=0;" edge="1" parent="1" source="AHtcUxiShF1uRWyKiiDl-37" target="AHtcUxiShF1uRWyKiiDl-75">
          <mxGeometry relative="1" as="geometry" />
        </mxCell>
        <mxCell id="AHtcUxiShF1uRWyKiiDl-37" value="Ocupam" style="rhombus;whiteSpace=wrap;html=1;fontSize=18;" vertex="1" parent="1">
          <mxGeometry x="445" y="380" width="90" height="80" as="geometry" />
        </mxCell>
        <mxCell id="AHtcUxiShF1uRWyKiiDl-58" style="edgeStyle=orthogonalEdgeStyle;rounded=0;orthogonalLoop=1;jettySize=auto;html=1;exitX=1;exitY=0.5;exitDx=0;exitDy=0;entryX=0.5;entryY=0;entryDx=0;entryDy=0;fontSize=18;endArrow=none;endFill=0;" edge="1" parent="1" source="AHtcUxiShF1uRWyKiiDl-40" target="AHtcUxiShF1uRWyKiiDl-57">
          <mxGeometry relative="1" as="geometry" />
        </mxCell>
        <mxCell id="AHtcUxiShF1uRWyKiiDl-40" value="" style="rounded=0;whiteSpace=wrap;html=1;fontSize=18;rotation=90;fillColor=none;dashed=1;" vertex="1" parent="1">
          <mxGeometry x="287.01" y="313.99" width="401.88" height="212.02" as="geometry" />
        </mxCell>
        <mxCell id="AHtcUxiShF1uRWyKiiDl-41" value="" style="triangle;whiteSpace=wrap;html=1;fontSize=18;fillColor=none;" vertex="1" parent="1">
          <mxGeometry x="310" y="505" width="60" height="80" as="geometry" />
        </mxCell>
        <mxCell id="AHtcUxiShF1uRWyKiiDl-48" style="edgeStyle=orthogonalEdgeStyle;rounded=0;orthogonalLoop=1;jettySize=auto;html=1;exitX=1;exitY=0.5;exitDx=0;exitDy=0;entryX=0;entryY=0.075;entryDx=0;entryDy=0;entryPerimeter=0;fontSize=18;endArrow=none;endFill=0;" edge="1" parent="1" source="AHtcUxiShF1uRWyKiiDl-43" target="AHtcUxiShF1uRWyKiiDl-41">
          <mxGeometry relative="1" as="geometry" />
        </mxCell>
        <mxCell id="AHtcUxiShF1uRWyKiiDl-43" value="Mensais" style="rounded=0;whiteSpace=wrap;html=1;fontSize=18;" vertex="1" parent="1">
          <mxGeometry x="169.05999999999995" y="490" width="120" height="40" as="geometry" />
        </mxCell>
        <mxCell id="AHtcUxiShF1uRWyKiiDl-56" style="edgeStyle=orthogonalEdgeStyle;rounded=0;orthogonalLoop=1;jettySize=auto;html=1;exitX=1;exitY=0.5;exitDx=0;exitDy=0;entryX=0;entryY=0.75;entryDx=0;entryDy=0;fontSize=18;endArrow=none;endFill=0;" edge="1" parent="1" source="AHtcUxiShF1uRWyKiiDl-44" target="AHtcUxiShF1uRWyKiiDl-41">
          <mxGeometry relative="1" as="geometry" />
        </mxCell>
        <mxCell id="AHtcUxiShF1uRWyKiiDl-44" value="Avulsas" style="rounded=0;whiteSpace=wrap;html=1;fontSize=18;" vertex="1" parent="1">
          <mxGeometry x="169.99999999999994" y="550" width="120" height="40" as="geometry" />
        </mxCell>
        <mxCell id="AHtcUxiShF1uRWyKiiDl-47" style="edgeStyle=orthogonalEdgeStyle;rounded=0;orthogonalLoop=1;jettySize=auto;html=1;exitX=0.5;exitY=1;exitDx=0;exitDy=0;entryX=0;entryY=0.5;entryDx=0;entryDy=0;fontSize=18;endArrow=none;endFill=0;" edge="1" parent="1" source="AHtcUxiShF1uRWyKiiDl-45" target="AHtcUxiShF1uRWyKiiDl-43">
          <mxGeometry relative="1" as="geometry" />
        </mxCell>
        <mxCell id="AHtcUxiShF1uRWyKiiDl-45" value="&lt;div&gt;&lt;span&gt;Associados&amp;nbsp;&lt;/span&gt;&lt;/div&gt;" style="rhombus;whiteSpace=wrap;html=1;fontSize=18;align=center;" vertex="1" parent="1">
          <mxGeometry x="30" y="400" width="120" height="80" as="geometry" />
        </mxCell>
        <mxCell id="AHtcUxiShF1uRWyKiiDl-59" style="edgeStyle=orthogonalEdgeStyle;rounded=0;orthogonalLoop=1;jettySize=auto;html=1;exitX=0.5;exitY=1;exitDx=0;exitDy=0;entryX=0.5;entryY=0;entryDx=0;entryDy=0;fontSize=18;endArrow=none;endFill=0;" edge="1" parent="1" source="AHtcUxiShF1uRWyKiiDl-57" target="Md_CM1CN4GEFnyTzax27-1">
          <mxGeometry relative="1" as="geometry" />
        </mxCell>
        <mxCell id="AHtcUxiShF1uRWyKiiDl-57" value="&lt;div&gt;&lt;span&gt;Têm&lt;/span&gt;&lt;/div&gt;" style="rhombus;whiteSpace=wrap;html=1;fontSize=18;align=center;" vertex="1" parent="1">
          <mxGeometry x="427.95" y="680" width="120" height="80" as="geometry" />
        </mxCell>
        <mxCell id="AHtcUxiShF1uRWyKiiDl-63" style="edgeStyle=orthogonalEdgeStyle;rounded=0;orthogonalLoop=1;jettySize=auto;html=1;exitX=0.5;exitY=1;exitDx=0;exitDy=0;entryX=0.117;entryY=0;entryDx=0;entryDy=0;entryPerimeter=0;fontSize=18;endArrow=none;endFill=0;" edge="1" parent="1" source="AHtcUxiShF1uRWyKiiDl-60" target="Md_CM1CN4GEFnyTzax27-4">
          <mxGeometry relative="1" as="geometry" />
        </mxCell>
        <mxCell id="AHtcUxiShF1uRWyKiiDl-60" value="" style="ellipse;whiteSpace=wrap;html=1;aspect=fixed;fontSize=18;fillColor=#000000;" vertex="1" parent="1">
          <mxGeometry y="160" width="40" height="40" as="geometry" />
        </mxCell>
        <mxCell id="AHtcUxiShF1uRWyKiiDl-64" value="&lt;font style=&quot;font-size: 15px&quot;&gt;CPF&lt;/font&gt;" style="text;html=1;strokeColor=none;fillColor=none;align=center;verticalAlign=middle;whiteSpace=wrap;rounded=0;fontSize=18;" vertex="1" parent="1">
          <mxGeometry x="5" y="120" width="30" height="30" as="geometry" />
        </mxCell>
        <mxCell id="AHtcUxiShF1uRWyKiiDl-66" style="edgeStyle=orthogonalEdgeStyle;rounded=0;orthogonalLoop=1;jettySize=auto;html=1;exitX=0.5;exitY=1;exitDx=0;exitDy=0;entryX=0.822;entryY=0;entryDx=0;entryDy=0;entryPerimeter=0;fontSize=15;endArrow=none;endFill=0;" edge="1" parent="1" source="AHtcUxiShF1uRWyKiiDl-65" target="Md_CM1CN4GEFnyTzax27-4">
          <mxGeometry relative="1" as="geometry" />
        </mxCell>
        <mxCell id="AHtcUxiShF1uRWyKiiDl-65" value="" style="ellipse;whiteSpace=wrap;html=1;aspect=fixed;fontSize=15;fillColor=#FFFFFF;" vertex="1" parent="1">
          <mxGeometry x="129.06" y="160" width="40" height="40" as="geometry" />
        </mxCell>
        <mxCell id="AHtcUxiShF1uRWyKiiDl-67" value="Nome" style="text;html=1;strokeColor=none;fillColor=none;align=center;verticalAlign=middle;whiteSpace=wrap;rounded=0;fontSize=15;" vertex="1" parent="1">
          <mxGeometry x="119.06" y="120" width="60" height="30" as="geometry" />
        </mxCell>
        <mxCell id="AHtcUxiShF1uRWyKiiDl-71" style="edgeStyle=orthogonalEdgeStyle;rounded=0;orthogonalLoop=1;jettySize=auto;html=1;exitX=0;exitY=0.5;exitDx=0;exitDy=0;entryX=1;entryY=0.75;entryDx=0;entryDy=0;fontSize=15;endArrow=none;endFill=0;" edge="1" parent="1" source="AHtcUxiShF1uRWyKiiDl-68" target="Md_CM1CN4GEFnyTzax27-3">
          <mxGeometry relative="1" as="geometry" />
        </mxCell>
        <mxCell id="AHtcUxiShF1uRWyKiiDl-68" value="" style="ellipse;whiteSpace=wrap;html=1;aspect=fixed;fontSize=15;fillColor=#FFFFFF;" vertex="1" parent="1">
          <mxGeometry x="610" y="560" width="40" height="40" as="geometry" />
        </mxCell>
        <mxCell id="AHtcUxiShF1uRWyKiiDl-69" value="Status" style="text;html=1;strokeColor=none;fillColor=none;align=center;verticalAlign=middle;whiteSpace=wrap;rounded=0;fontSize=15;" vertex="1" parent="1">
          <mxGeometry x="660" y="565" width="40" height="30" as="geometry" />
        </mxCell>
        <mxCell id="AHtcUxiShF1uRWyKiiDl-74" style="edgeStyle=orthogonalEdgeStyle;rounded=0;orthogonalLoop=1;jettySize=auto;html=1;exitX=0;exitY=0.5;exitDx=0;exitDy=0;entryX=1;entryY=0.25;entryDx=0;entryDy=0;fontSize=15;endArrow=none;endFill=0;" edge="1" parent="1" source="AHtcUxiShF1uRWyKiiDl-72" target="Md_CM1CN4GEFnyTzax27-3">
          <mxGeometry relative="1" as="geometry" />
        </mxCell>
        <mxCell id="AHtcUxiShF1uRWyKiiDl-72" value="" style="ellipse;whiteSpace=wrap;html=1;aspect=fixed;fontSize=15;fillColor=#000000;" vertex="1" parent="1">
          <mxGeometry x="610" y="490" width="40" height="40" as="geometry" />
        </mxCell>
        <mxCell id="AHtcUxiShF1uRWyKiiDl-73" value="Cod." style="text;html=1;strokeColor=none;fillColor=none;align=center;verticalAlign=middle;whiteSpace=wrap;rounded=0;fontSize=15;" vertex="1" parent="1">
          <mxGeometry x="660" y="495" width="30" height="30" as="geometry" />
        </mxCell>
        <mxCell id="AHtcUxiShF1uRWyKiiDl-75" value="" style="ellipse;whiteSpace=wrap;html=1;aspect=fixed;fontSize=15;fillColor=#FFFFFF;" vertex="1" parent="1">
          <mxGeometry x="547.95" y="409.99" width="20" height="20" as="geometry" />
        </mxCell>
        <mxCell id="AHtcUxiShF1uRWyKiiDl-76" value="Data&lt;br&gt;Entrada" style="text;html=1;strokeColor=none;fillColor=none;align=center;verticalAlign=middle;whiteSpace=wrap;rounded=0;fontSize=15;" vertex="1" parent="1">
          <mxGeometry x="550" y="370" width="20" height="30" as="geometry" />
        </mxCell>
        <mxCell id="AHtcUxiShF1uRWyKiiDl-82" style="edgeStyle=orthogonalEdgeStyle;rounded=0;orthogonalLoop=1;jettySize=auto;html=1;exitX=1;exitY=0.5;exitDx=0;exitDy=0;entryX=0;entryY=0.5;entryDx=0;entryDy=0;fontSize=15;endArrow=none;endFill=0;" edge="1" parent="1" source="AHtcUxiShF1uRWyKiiDl-80" target="AHtcUxiShF1uRWyKiiDl-37">
          <mxGeometry relative="1" as="geometry" />
        </mxCell>
        <mxCell id="AHtcUxiShF1uRWyKiiDl-80" value="" style="ellipse;whiteSpace=wrap;html=1;aspect=fixed;fontSize=15;fillColor=#FFFFFF;" vertex="1" parent="1">
          <mxGeometry x="407.95000000000005" y="409.99" width="20" height="20" as="geometry" />
        </mxCell>
        <mxCell id="AHtcUxiShF1uRWyKiiDl-81" value="Data&lt;br&gt;Saída" style="text;html=1;strokeColor=none;fillColor=none;align=center;verticalAlign=middle;whiteSpace=wrap;rounded=0;fontSize=15;" vertex="1" parent="1">
          <mxGeometry x="407.95" y="370" width="20" height="30" as="geometry" />
        </mxCell>
        <mxCell id="AHtcUxiShF1uRWyKiiDl-84" value="Tipo" style="text;html=1;strokeColor=none;fillColor=none;align=center;verticalAlign=middle;whiteSpace=wrap;rounded=0;fontSize=15;" vertex="1" parent="1">
          <mxGeometry x="415" y="1000" width="60" height="30" as="geometry" />
        </mxCell>
        <mxCell id="AHtcUxiShF1uRWyKiiDl-86" value="Valor" style="text;html=1;strokeColor=none;fillColor=none;align=center;verticalAlign=middle;whiteSpace=wrap;rounded=0;fontSize=15;" vertex="1" parent="1">
          <mxGeometry x="507.95" y="1000" width="60" height="30" as="geometry" />
        </mxCell>
        <mxCell id="AHtcUxiShF1uRWyKiiDl-94" style="edgeStyle=orthogonalEdgeStyle;rounded=0;orthogonalLoop=1;jettySize=auto;html=1;exitX=0.5;exitY=0;exitDx=0;exitDy=0;entryX=0.75;entryY=1;entryDx=0;entryDy=0;fontSize=15;endArrow=none;endFill=0;" edge="1" parent="1" source="AHtcUxiShF1uRWyKiiDl-88" target="Md_CM1CN4GEFnyTzax27-1">
          <mxGeometry relative="1" as="geometry" />
        </mxCell>
        <mxCell id="AHtcUxiShF1uRWyKiiDl-88" value="" style="ellipse;whiteSpace=wrap;html=1;aspect=fixed;fontSize=15;fillColor=#FFFFFF;" vertex="1" parent="1">
          <mxGeometry x="517.95" y="960" width="40" height="40" as="geometry" />
        </mxCell>
        <mxCell id="AHtcUxiShF1uRWyKiiDl-93" style="edgeStyle=orthogonalEdgeStyle;rounded=0;orthogonalLoop=1;jettySize=auto;html=1;exitX=0.5;exitY=0;exitDx=0;exitDy=0;entryX=0.25;entryY=1;entryDx=0;entryDy=0;fontSize=15;endArrow=none;endFill=0;" edge="1" parent="1" source="AHtcUxiShF1uRWyKiiDl-89" target="Md_CM1CN4GEFnyTzax27-1">
          <mxGeometry relative="1" as="geometry" />
        </mxCell>
        <mxCell id="AHtcUxiShF1uRWyKiiDl-89" value="" style="ellipse;whiteSpace=wrap;html=1;aspect=fixed;fontSize=15;fillColor=#000000;" vertex="1" parent="1">
          <mxGeometry x="425.00000000000006" y="960" width="40" height="40" as="geometry" />
        </mxCell>
        <mxCell id="AHtcUxiShF1uRWyKiiDl-99" style="edgeStyle=orthogonalEdgeStyle;rounded=0;orthogonalLoop=1;jettySize=auto;html=1;exitX=0.5;exitY=1;exitDx=0;exitDy=0;entryX=0.133;entryY=0;entryDx=0;entryDy=0;entryPerimeter=0;fontSize=15;endArrow=none;endFill=0;" edge="1" parent="1" source="AHtcUxiShF1uRWyKiiDl-95" target="Md_CM1CN4GEFnyTzax27-2">
          <mxGeometry relative="1" as="geometry" />
        </mxCell>
        <mxCell id="AHtcUxiShF1uRWyKiiDl-95" value="" style="ellipse;whiteSpace=wrap;html=1;aspect=fixed;fontSize=15;fillColor=#000000;" vertex="1" parent="1">
          <mxGeometry x="405" y="170" width="40" height="40" as="geometry" />
        </mxCell>
        <mxCell id="AHtcUxiShF1uRWyKiiDl-96" value="Placa" style="text;html=1;strokeColor=none;fillColor=none;align=center;verticalAlign=middle;whiteSpace=wrap;rounded=0;fontSize=15;" vertex="1" parent="1">
          <mxGeometry x="395" y="130" width="60" height="30" as="geometry" />
        </mxCell>
        <mxCell id="AHtcUxiShF1uRWyKiiDl-102" style="edgeStyle=orthogonalEdgeStyle;rounded=0;orthogonalLoop=1;jettySize=auto;html=1;exitX=0.5;exitY=1;exitDx=0;exitDy=0;entryX=0.75;entryY=0;entryDx=0;entryDy=0;fontSize=15;endArrow=none;endFill=0;" edge="1" parent="1" source="AHtcUxiShF1uRWyKiiDl-100" target="Md_CM1CN4GEFnyTzax27-2">
          <mxGeometry relative="1" as="geometry" />
        </mxCell>
        <mxCell id="AHtcUxiShF1uRWyKiiDl-100" value="" style="ellipse;whiteSpace=wrap;html=1;aspect=fixed;fontSize=15;fillColor=#FFFFFF;" vertex="1" parent="1">
          <mxGeometry x="517.95" y="170" width="40" height="40" as="geometry" />
        </mxCell>
        <mxCell id="AHtcUxiShF1uRWyKiiDl-101" value="Modelo" style="text;html=1;strokeColor=none;fillColor=none;align=center;verticalAlign=middle;whiteSpace=wrap;rounded=0;fontSize=15;" vertex="1" parent="1">
          <mxGeometry x="507.95" y="130" width="60" height="30" as="geometry" />
        </mxCell>
        <mxCell id="AHtcUxiShF1uRWyKiiDl-103" value="1...N" style="text;html=1;strokeColor=none;fillColor=none;align=center;verticalAlign=middle;whiteSpace=wrap;rounded=0;fontSize=15;" vertex="1" parent="1">
          <mxGeometry x="340" y="260" width="40" height="30" as="geometry" />
        </mxCell>
        <mxCell id="AHtcUxiShF1uRWyKiiDl-104" value="1...1" style="text;html=1;strokeColor=none;fillColor=none;align=center;verticalAlign=middle;whiteSpace=wrap;rounded=0;fontSize=15;" vertex="1" parent="1">
          <mxGeometry x="200" y="260" width="40" height="30" as="geometry" />
        </mxCell>
        <mxCell id="AHtcUxiShF1uRWyKiiDl-105" value="1...1" style="text;html=1;strokeColor=none;fillColor=none;align=center;verticalAlign=middle;whiteSpace=wrap;rounded=0;fontSize=15;" vertex="1" parent="1">
          <mxGeometry x="495" y="450" width="40" height="30" as="geometry" />
        </mxCell>
        <mxCell id="AHtcUxiShF1uRWyKiiDl-106" value="1...1" style="text;html=1;strokeColor=none;fillColor=none;align=center;verticalAlign=middle;whiteSpace=wrap;rounded=0;fontSize=15;" vertex="1" parent="1">
          <mxGeometry x="495" y="360" width="40" height="30" as="geometry" />
        </mxCell>
        <mxCell id="AHtcUxiShF1uRWyKiiDl-107" value="1...N" style="text;html=1;strokeColor=none;fillColor=none;align=center;verticalAlign=middle;whiteSpace=wrap;rounded=0;fontSize=15;" vertex="1" parent="1">
          <mxGeometry x="100" y="480" width="40" height="30" as="geometry" />
        </mxCell>
        <mxCell id="AHtcUxiShF1uRWyKiiDl-108" value="1...1" style="text;html=1;strokeColor=none;fillColor=none;align=center;verticalAlign=middle;whiteSpace=wrap;rounded=0;fontSize=15;" vertex="1" parent="1">
          <mxGeometry x="100" y="370" width="40" height="30" as="geometry" />
        </mxCell>
        <mxCell id="AHtcUxiShF1uRWyKiiDl-109" value="1...N" style="text;html=1;strokeColor=none;fillColor=none;align=center;verticalAlign=middle;whiteSpace=wrap;rounded=0;fontSize=15;" vertex="1" parent="1">
          <mxGeometry x="490.00000000000006" y="760" width="40" height="30" as="geometry" />
        </mxCell>
        <mxCell id="AHtcUxiShF1uRWyKiiDl-110" value="1...N" style="text;html=1;strokeColor=none;fillColor=none;align=center;verticalAlign=middle;whiteSpace=wrap;rounded=0;fontSize=15;" vertex="1" parent="1">
          <mxGeometry x="490.00000000000006" y="650" width="40" height="30" as="geometry" />
        </mxCell>
      </root>
    </mxGraphModel>
  </diagram>
</mxfile>
